External Loads File
version=1
nRows=69
nColumns=13
Range=5.000000e-03-10 seconds
endheader
time 	forceRightX 	forceRightY 	forceRightZ 	pointRightX 	pointRightY 	pointRightZ 	forceLeftX 	forceLeftY 	forceLeftZ 	pointLeftX 	pointLeftY 	pointLeftZ 		
2.505000 89.091512 -84.140366 -0.000000 0.157850 0.258842 -0.106880 -347.290298 895.341929 -0.000000 0.424714 0.364612 -0.360800
2.510000 89.681770 -74.114930 -0.000000 0.155901 0.268639 -0.106928 -353.584030 916.377180 -0.000000 0.427511 0.354202 -0.360754
2.515000 90.328421 -65.162008 -0.000000 0.154557 0.278614 -0.106943 -358.533405 937.553069 -0.000000 0.429732 0.343677 -0.360769
2.520000 90.479169 -57.884888 -0.000000 0.153800 0.288711 -0.107082 -362.043387 958.902531 -0.000000 0.431406 0.333111 -0.360650
2.525000 89.563869 -52.778782 -0.000000 0.153669 0.299048 -0.107279 -362.574959 980.823922 -0.000000 0.432536 0.322363 -0.360575
2.530000 87.195328 -49.934350 -0.000000 0.154045 0.309366 -0.107363 -360.394270 1002.781400 -0.000000 0.433137 0.311527 -0.360564
2.535000 83.027789 -49.323830 -0.000000 0.155036 0.319892 -0.107543 -354.767487 1024.333502 -0.000000 0.433260 0.300855 -0.360562
2.540000 76.886135 -50.694032 -0.000000 0.156771 0.330242 -0.107767 -345.610467 1044.549298 -0.000000 0.432746 0.290209 -0.360485
2.545000 68.694122 -53.774476 -0.000000 0.159002 0.340563 -0.108178 -332.073119 1062.573849 -0.000000 0.431698 0.279697 -0.360655
2.550000 58.491002 -58.290548 -0.000000 0.161779 0.350895 -0.108531 -313.536600 1077.385227 -0.000000 0.430081 0.269344 -0.360482
2.555000 46.466706 -63.971408 -0.000000 0.165106 0.361174 -0.108807 -290.475769 1087.653051 -0.000000 0.427842 0.259300 -0.360398
2.560000 32.770935 -70.683749 -0.000000 0.169054 0.371688 -0.109073 -261.184503 1092.648094 -0.000000 0.425138 0.249338 -0.360261
2.565000 17.916334 -78.106825 -0.000000 0.173547 0.381570 -0.109367 -228.729339 1090.446510 -0.000000 0.422101 0.239285 -0.360198
2.570000 2.380648 -85.987801 -0.000000 0.178410 0.391249 -0.109620 -194.183012 1079.887050 -0.000000 0.418695 0.229660 -0.360133
2.575000 -13.400342 -93.971829 -0.000000 0.183754 0.400751 -0.109942 -157.602465 1060.242033 -0.000000 0.414915 0.220378 -0.359899
2.580000 -28.891183 -101.611939 -0.000000 0.189502 0.409910 -0.110208 -120.396499 1030.833949 -0.000000 0.410780 0.211433 -0.359662
2.585000 -43.726591 -108.404174 -0.000000 0.195704 0.418831 -0.110540 -82.704603 991.467704 -0.000000 0.406178 0.202845 -0.359477
2.590000 -57.621690 -113.814733 -0.000000 0.202834 0.427374 -0.110597 -45.040888 942.171488 -0.000000 0.401299 0.194595 -0.359344
2.595000 -69.782506 -117.683835 -0.000000 0.209229 0.435356 -0.111134 -12.784731 883.245525 -0.000000 0.396120 0.186994 -0.359167
2.600000 -80.812903 -119.229513 -0.000000 0.216854 0.443076 -0.110901 19.004026 815.796975 -0.000000 0.390675 0.179711 -0.358921
2.605000 -90.265763 -118.399665 -0.000000 0.224181 0.450566 -0.111897 46.315997 741.023803 -0.000000 0.385013 0.172773 -0.358748
2.610000 -98.237535 -115.012141 -0.000000 0.231808 0.457312 -0.111697 69.315889 660.636620 -0.000000 0.379139 0.166364 -0.358712
2.615000 -104.989984 -108.868835 -0.000000 0.240212 0.463158 -0.112036 89.208614 576.520173 -0.000000 0.372915 0.160586 -0.358652
2.620000 -110.611252 -99.992421 -0.000000 0.248885 0.468770 -0.112208 106.288341 490.777266 -0.000000 0.366151 0.155293 -0.358607
2.625000 -114.953620 -88.739524 -0.000000 0.257325 0.473825 -0.112258 120.021655 405.817220 -0.000000 0.358886 0.150582 -0.358664
2.630000 -118.285905 -74.956747 -0.000000 0.266229 0.478267 -0.112295 132.201867 323.409101 -0.000000 0.350839 0.146589 -0.358744
2.635000 -120.404455 -59.006840 -0.000000 0.274898 0.482185 -0.112282 142.559001 245.524072 -0.000000 0.342073 0.143424 -0.358606
2.640000 -121.337733 -40.864684 -0.000000 0.283593 0.485653 -0.112261 151.722693 173.206760 -0.000000 0.332606 0.140799 -0.358494
2.645000 -121.006531 -20.642888 -0.000000 0.292301 0.488450 -0.112281 159.453598 107.146564 -0.000000 0.322678 0.138839 -0.358520
2.650000 -119.427020 1.569008 -0.000000 0.300848 0.490538 -0.112378 165.260278 47.718693 -0.000000 0.312725 0.137618 -0.358505
2.655000 -116.806314 25.939820 -0.000000 0.309133 0.491875 -0.112477 168.683249 -5.061449 -0.000000 0.302924 0.136724 -0.358355
2.660000 -113.498870 52.833694 -0.000000 0.317220 0.492522 -0.112729 169.316961 -51.313088 -0.000000 0.293463 0.136439 -0.358139
2.665000 -110.036539 82.717562 -0.000000 0.324876 0.492507 -0.112824 167.072087 -91.175480 -0.000000 0.284389 0.136657 -0.358001
2.670000 -107.015004 116.268790 -0.000000 0.332173 0.491663 -0.112839 162.142587 -125.055819 -0.000000 0.275670 0.137494 -0.357911
2.675000 -105.047209 154.089014 -0.000000 0.339076 0.490210 -0.112723 154.893301 -153.286797 -0.000000 0.267066 0.139001 -0.357863
2.680000 -104.702252 196.495858 -0.000000 0.345649 0.487368 -0.112546 145.735059 -176.001639 -0.000000 0.258574 0.141144 -0.357744
2.685000 -106.432065 243.330883 -0.000000 0.352027 0.484028 -0.112289 135.070488 -193.159019 -0.000000 0.249984 0.143994 -0.357658
2.690000 -110.683776 293.774312 -0.000000 0.358413 0.480388 -0.111888 123.466626 -204.567324 -0.000000 0.241544 0.147538 -0.357344
2.695000 -117.794660 346.430407 -0.000000 0.364581 0.475861 -0.111519 111.553499 -210.105120 -0.000000 0.233364 0.151670 -0.357031
2.700000 -127.479385 399.664377 -0.000000 0.370737 0.470325 -0.111453 99.685726 -209.942347 -0.000000 0.225428 0.156352 -0.356840
2.705000 -139.734099 451.578492 -0.000000 0.376825 0.464214 -0.111357 88.474814 -204.324441 -0.000000 0.217705 0.161604 -0.356782
2.710000 -154.211313 500.565918 -0.000000 0.383001 0.457478 -0.111130 78.333749 -193.884924 -0.000000 0.210308 0.167454 -0.356698
2.715000 -170.858488 545.373292 -0.000000 0.388876 0.450000 -0.110759 69.732878 -179.494701 -0.000000 0.203209 0.173985 -0.356626
2.720000 -188.937795 585.507250 -0.000000 0.394887 0.441914 -0.110543 62.811279 -162.316465 -0.000000 0.196387 0.180899 -0.356645
2.725000 -208.053761 620.872087 -0.000000 0.400940 0.433364 -0.110350 57.728412 -143.502875 -0.000000 0.189997 0.188447 -0.356665
2.730000 -228.228919 651.626552 -0.000000 0.406570 0.424285 -0.110282 54.520533 -124.080645 -0.000000 0.184105 0.196492 -0.356678
2.735000 -248.599904 678.522499 -0.000000 0.412077 0.414833 -0.110069 52.832698 -104.959884 -0.000000 0.178772 0.204892 -0.356656
2.740000 -268.660368 702.409993 -0.000000 0.417035 0.404898 -0.109739 52.320515 -86.780997 -0.000000 0.174005 0.213675 -0.356572
2.745000 -287.701736 724.354271 -0.000000 0.421605 0.394593 -0.109163 52.625342 -70.018380 -0.000000 0.169804 0.222696 -0.356543
2.750000 -304.648538 745.595811 -0.000000 0.425811 0.384016 -0.108702 53.441004 -55.086980 -0.000000 0.166105 0.232096 -0.356454
2.755000 -318.892875 767.055122 -0.000000 0.429557 0.373191 -0.108321 54.592500 -42.335390 -0.000000 0.163006 0.241872 -0.356406
2.760000 -329.296565 789.606537 -0.000000 0.432852 0.362152 -0.107978 55.885394 -32.096489 -0.000000 0.160393 0.252066 -0.356333
2.765000 -335.693265 813.402430 -0.000000 0.435611 0.351037 -0.107752 57.108533 -24.520695 -0.000000 0.158363 0.262605 -0.356154
2.770000 -337.890429 838.303618 -0.000000 0.437794 0.339918 -0.107760 57.935046 -19.594584 -0.000000 0.156834 0.273356 -0.355992
2.775000 -335.002439 864.197784 -0.000000 0.439409 0.328627 -0.107629 57.966038 -17.168229 -0.000000 0.155858 0.284298 -0.356029
2.780000 -327.056270 890.381365 -0.000000 0.440296 0.317413 -0.107490 56.882350 -16.875929 -0.000000 0.155531 0.295555 -0.355766
2.785000 -314.973475 915.698258 -0.000000 0.440704 0.306384 -0.107463 54.551357 -18.233229 -0.000000 0.155840 0.306843 -0.355194
2.790000 -298.716104 939.373387 -0.000000 0.440350 0.295532 -0.107305 51.015931 -20.849247 -0.000000 0.156715 0.318192 -0.354989
2.795000 -275.934793 961.388463 -0.000000 0.439515 0.284045 -0.107294 46.385825 -24.501535 -0.000000 0.158147 0.329583 -0.355168
2.800000 -252.876678 979.293772 -0.000000 0.437986 0.273476 -0.107444 41.033768 -28.577585 -0.000000 0.160181 0.340797 -0.355050
2.805000 -226.556805 993.489383 -0.000000 0.436039 0.262853 -0.106810 35.102732 -32.951698 -0.000000 0.162793 0.351947 -0.354654
2.810000 -198.007243 1003.187681 -0.000000 0.433212 0.252384 -0.107719 28.788309 -37.332126 -0.000000 0.166011 0.362870 -0.354648
2.815000 -169.023572 1007.550756 -0.000000 0.429946 0.242431 -0.107698 22.300981 -41.531327 -0.000000 0.169722 0.373622 -0.354539
2.820000 -138.739172 1006.279675 -0.000000 0.426117 0.232745 -0.107719 15.716375 -45.563688 -0.000000 0.173943 0.384229 -0.354377
2.825000 -109.379797 998.623680 -0.000000 0.421797 0.223601 -0.107723 9.123361 -49.449136 -0.000000 0.178435 0.394438 -0.355015
2.830000 -80.823674 984.294097 -0.000000 0.416931 0.214560 -0.107585 2.362285 -53.257506 -0.000000 0.182724 0.404215 -0.355727
2.835000 -46.930520 963.319563 -0.000000 0.411721 0.205919 -0.107391 -5.150607 -56.972562 -0.000000 0.190170 0.413712 -0.353487
2.840000 -15.869144 934.691910 -0.000000 0.406056 0.197584 -0.107258 -13.172868 -60.479420 -0.000000 0.196863 0.422795 -0.353421
2.845000 12.235944 898.323928 -0.000000 0.400115 0.189831 -0.107084 -21.801770 -63.595751 -0.000000 0.203455 0.431386 -0.353158
